<svg width="24" height="24" viewBox="0 0 24 24" fill="none" xmlns="http://www.w3.org/2000/svg">
<g clip-path="url(#clip0_347_3221)">
<path d="M4 20C3.45 20 2.97933 19.8043 2.588 19.413C2.19667 19.0217 2.00067 18.5507 2 18V6C2 5.45 2.196 4.97933 2.588 4.588C2.98 4.19667 3.45067 4.00067 4 4H20C20.55 4 21.021 4.196 21.413 4.588C21.805 4.98 22.0007 5.45067 22 6V11C22 11.2833 21.904 11.521 21.712 11.713C21.52 11.905 21.2827 12.0007 21 12H4V18H13C13.2833 18 13.521 18.096 13.713 18.288C13.905 18.48 14.0007 18.7173 14 19C13.9993 19.2827 13.9033 19.5203 13.712 19.713C13.5207 19.9057 13.2833 20.0013 13 20H4ZM4 8H20V6H4V8ZM19 19H17C16.7167 19 16.4793 18.904 16.288 18.712C16.0967 18.52 16.0007 18.2827 16 18C15.9993 17.7173 16.0953 17.48 16.288 17.288C16.4807 17.096 16.718 17 17 17H19V15C19 14.7167 19.096 14.4793 19.288 14.288C19.48 14.0967 19.7173 14.0007 20 14C20.2827 13.9993 20.5203 14.0953 20.713 14.288C20.9057 14.4807 21.0013 14.718 21 15V17H23C23.2833 17 23.521 17.096 23.713 17.288C23.905 17.48 24.0007 17.7173 24 18C23.9993 18.2827 23.9033 18.5203 23.712 18.713C23.5207 18.9057 23.2833 19.0013 23 19H21V21C21 21.2833 20.904 21.521 20.712 21.713C20.52 21.905 20.2827 22.0007 20 22C19.7173 21.9993 19.48 21.9033 19.288 21.712C19.096 21.5207 19 21.2833 19 21V19Z" fill="#396C3A"/>
</g>
<defs>
<clipPath id="clip0_347_3221">
<rect width="24" height="24" fill="white"/>
</clipPath>
</defs>
</svg>
