<svg width="24" height="24" viewBox="0 0 24 24" fill="none" xmlns="http://www.w3.org/2000/svg">
<path d="M7.425 9.47481L11.15 3.39981C11.25 3.23315 11.375 3.11215 11.525 3.03681C11.675 2.96148 11.8333 2.92415 12 2.92481C12.1667 2.92548 12.325 2.96315 12.475 3.03781C12.625 3.11248 12.75 3.23315 12.85 3.39981L16.575 9.47481C16.675 9.64148 16.725 9.81648 16.725 9.99981C16.725 10.1831 16.6833 10.3498 16.6 10.4998C16.5167 10.6498 16.4 10.7708 16.25 10.8628C16.1 10.9548 15.925 11.0005 15.725 10.9998H8.275C8.075 10.9998 7.9 10.9541 7.75 10.8628C7.6 10.7715 7.48333 10.6505 7.4 10.4998C7.31667 10.3491 7.275 10.1825 7.275 9.99981C7.275 9.81715 7.325 9.64215 7.425 9.47481ZM17.5 21.9998C16.25 21.9998 15.1877 21.5625 14.313 20.6878C13.4383 19.8131 13.0007 18.7505 13 17.4998C12.9993 16.2491 13.437 15.1868 14.313 14.3128C15.189 13.4388 16.2513 13.0011 17.5 12.9998C18.7487 12.9985 19.8113 13.4361 20.688 14.3128C21.5647 15.1895 22.002 16.2518 22 17.4998C21.998 18.7478 21.5607 19.8105 20.688 20.6878C19.8153 21.5651 18.7527 22.0025 17.5 21.9998ZM3 20.4998V14.4998C3 14.2165 3.096 13.9791 3.288 13.7878C3.48 13.5965 3.71733 13.5005 4 13.4998H10C10.2833 13.4998 10.521 13.5958 10.713 13.7878C10.905 13.9798 11.0007 14.2171 11 14.4998V20.4998C11 20.7831 10.904 21.0208 10.712 21.2128C10.52 21.4048 10.2827 21.5005 10 21.4998H4C3.71667 21.4998 3.47933 21.4038 3.288 21.2118C3.09667 21.0198 3.00067 20.7825 3 20.4998ZM17.5 19.9998C18.2 19.9998 18.7917 19.7581 19.275 19.2748C19.7583 18.7915 20 18.1998 20 17.4998C20 16.7998 19.7583 16.2081 19.275 15.7248C18.7917 15.2415 18.2 14.9998 17.5 14.9998C16.8 14.9998 16.2083 15.2415 15.725 15.7248C15.2417 16.2081 15 16.7998 15 17.4998C15 18.1998 15.2417 18.7915 15.725 19.2748C16.2083 19.7581 16.8 19.9998 17.5 19.9998ZM5 19.4998H9V15.4998H5V19.4998ZM10.05 8.99981H13.95L12 5.84981L10.05 8.99981Z" fill="#396C3A"/>
</svg>
