<svg width="29" height="29" viewBox="0 0 29 29" fill="none" xmlns="http://www.w3.org/2000/svg">
<path d="M13.8297 25.9631C13.6909 25.9036 13.562 25.8144 13.4431 25.6954L6.78124 19.0633C6.56315 18.8452 6.4541 18.5676 6.4541 18.2306C6.4541 17.8935 6.56315 17.606 6.78124 17.3681C7.01917 17.1302 7.3019 17.0112 7.62944 17.0112C7.95698 17.0112 8.23931 17.1302 8.47644 17.3681L13.0862 22.0076V14.6617C13.0862 14.3247 13.2004 14.0424 13.4288 13.8147C13.6572 13.5871 13.9395 13.4729 14.2758 13.4721C14.6121 13.4713 14.8948 13.5855 15.124 13.8147C15.3532 14.0439 15.467 14.3263 15.4654 14.6617V22.0076L20.1049 17.3681C20.323 17.15 20.5958 17.041 20.9234 17.041C21.2509 17.041 21.5332 17.1599 21.7704 17.3979C21.9885 17.616 22.0975 17.8935 22.0975 18.2306C22.0975 18.5676 21.9885 18.8452 21.7704 19.0633L15.1085 25.6954C14.9896 25.8144 14.8607 25.9036 14.7219 25.9631C14.5831 26.0225 14.4344 26.0523 14.2758 26.0523C14.1172 26.0523 13.9685 26.0225 13.8297 25.9631ZM13.4288 10.7515C13.2004 10.5231 13.0862 10.2404 13.0862 9.9033V8.71369C13.0862 8.37663 13.2004 8.0943 13.4288 7.86669C13.6572 7.63907 13.9395 7.52487 14.2758 7.52408C14.6121 7.52328 14.8948 7.63749 15.124 7.86669C15.3532 8.09588 15.467 8.37822 15.4654 8.71369V9.9033C15.4654 10.2404 15.3512 10.5231 15.1228 10.7515C14.8944 10.9799 14.6121 11.0937 14.2758 11.0929C13.9395 11.0921 13.6572 10.9783 13.4288 10.7515ZM13.4288 4.80343C13.2004 4.57503 13.0862 4.2923 13.0862 3.95524C13.0862 3.61818 13.2004 3.33585 13.4288 3.10824C13.6572 2.88062 13.9395 2.76642 14.2758 2.76563C14.6121 2.76484 14.8948 2.87904 15.124 3.10824C15.3532 3.33744 15.467 3.61977 15.4654 3.95524C15.4638 4.29071 15.3496 4.57344 15.1228 4.80343C14.896 5.03343 14.6137 5.14723 14.2758 5.14485C13.938 5.14247 13.6556 5.02946 13.4288 4.80343Z" fill="#103911"/>
</svg>
