<svg width="23" height="23" viewBox="0 0 23 23" fill="none" xmlns="http://www.w3.org/2000/svg">
<path d="M6.5625 18.75C6.04687 18.75 5.60562 18.5666 5.23875 18.1997C4.87187 17.8328 4.68812 17.3913 4.6875 16.875V10.1719L2.8125 11.6016C2.59375 11.7578 2.35937 11.8244 2.10937 11.8012C1.85937 11.7781 1.65625 11.6569 1.5 11.4375C1.34375 11.2181 1.28125 10.9837 1.3125 10.7344C1.34375 10.485 1.46875 10.2819 1.6875 10.125L10.1016 3.67969C10.2734 3.55469 10.4572 3.46094 10.6528 3.39844C10.8484 3.33594 11.0475 3.30469 11.25 3.30469C11.4525 3.30469 11.6519 3.33594 11.8481 3.39844C12.0444 3.46094 12.2278 3.55469 12.3984 3.67969L15 5.67188V5.15625C15 4.76562 15.1369 4.43375 15.4106 4.16063C15.6844 3.8875 16.0162 3.75062 16.4062 3.75C16.7962 3.74937 17.1284 3.88625 17.4028 4.16063C17.6772 4.435 17.8137 4.76687 17.8125 5.15625V7.82813L20.8125 10.125C21.0156 10.2813 21.1369 10.4844 21.1762 10.7344C21.2156 10.9844 21.1569 11.2187 21 11.4375C20.8431 11.6562 20.64 11.7775 20.3906 11.8012C20.1412 11.825 19.9069 11.7584 19.6875 11.6016L17.8125 10.1719V16.875C17.8125 17.3906 17.6291 17.8322 17.2622 18.1997C16.8953 18.5672 16.4537 18.7506 15.9375 18.75H14.0625C13.5469 18.75 13.1056 18.5666 12.7387 18.1997C12.3719 17.8328 12.1881 17.3913 12.1875 16.875V13.125H10.3125V16.875C10.3125 17.3906 10.1291 17.8322 9.76219 18.1997C9.39531 18.5672 8.95375 18.7506 8.4375 18.75H6.5625ZM6.5625 16.875H8.4375V13.125C8.4375 12.6094 8.62125 12.1681 8.98875 11.8012C9.35625 11.4344 9.7975 11.2506 10.3125 11.25H12.1875C12.7031 11.25 13.1447 11.4337 13.5122 11.8012C13.8797 12.1687 14.0631 12.61 14.0625 13.125V16.875H15.9375V8.74219L11.25 5.17969L6.5625 8.74219V16.875ZM9.375 9.39844H13.125C13.125 8.89844 12.9375 8.48812 12.5625 8.1675C12.1875 7.84687 11.75 7.68687 11.25 7.6875C10.75 7.68812 10.3125 7.84844 9.9375 8.16844C9.5625 8.48844 9.375 8.89844 9.375 9.39844Z" fill="#396C3A"/>
</svg>
