<svg width="23" height="23" viewBox="0 0 23 23" fill="none" xmlns="http://www.w3.org/2000/svg">
<path d="M8.90625 20.625C7.98438 20.625 7.20688 20.3088 6.57375 19.6763C5.94063 19.0438 5.62438 18.2663 5.625 17.3438C5.625 17.2031 5.64469 17.0938 5.68406 17.0156C5.72344 16.9375 5.71938 16.875 5.67188 16.8281C5.62438 16.7813 5.56188 16.7775 5.48438 16.8169C5.40688 16.8563 5.2975 16.8756 5.15625 16.875C4.23438 16.875 3.45688 16.5588 2.82375 15.9263C2.19063 15.2938 1.87438 14.5163 1.875 13.5938C1.87563 12.6713 2.19219 11.8938 2.82469 11.2613C3.45719 10.6288 4.23438 10.3125 5.15625 10.3125C5.51563 10.3125 5.84375 10.3594 6.14063 10.4531C6.4375 10.5469 6.71875 10.6875 6.98438 10.875L10.875 6.98438C10.6875 6.71875 10.5469 6.4375 10.4531 6.14063C10.3594 5.84375 10.3125 5.51563 10.3125 5.15625C10.3125 4.23438 10.6291 3.45688 11.2622 2.82375C11.8953 2.19063 12.6725 1.87438 13.5938 1.875C14.515 1.87563 15.2925 2.19219 15.9263 2.82469C16.56 3.45719 16.8763 4.23438 16.875 5.15625C16.875 5.29688 16.8556 5.40625 16.8169 5.48438C16.7781 5.5625 16.7819 5.625 16.8281 5.67188C16.8744 5.71875 16.9369 5.72281 17.0156 5.68406C17.0944 5.64531 17.2038 5.62563 17.3438 5.625C18.2656 5.625 19.0431 5.94156 19.6763 6.57469C20.3094 7.20781 20.6256 7.985 20.625 8.90625C20.6244 9.8275 20.3081 10.605 19.6763 11.2388C19.0444 11.8725 18.2669 12.1888 17.3438 12.1875C16.9844 12.1875 16.6563 12.1406 16.3594 12.0469C16.0625 11.9531 15.7813 11.8125 15.5156 11.625L11.625 15.5156C11.8125 15.7813 11.9531 16.0625 12.0469 16.3594C12.1406 16.6563 12.1875 16.9844 12.1875 17.3438C12.1875 18.2656 11.8713 19.0431 11.2388 19.6763C10.6063 20.3094 9.82875 20.6256 8.90625 20.625ZM9.91406 18.3516C10.1797 18.0859 10.3125 17.75 10.3125 17.3438C10.3125 17.2031 10.2931 17.0666 10.2544 16.9341C10.2156 16.8016 10.1569 16.6725 10.0781 16.5469C9.8125 16.1719 9.70313 15.7697 9.75 15.3403C9.79688 14.9109 9.98438 14.5319 10.3125 14.2031L14.2031 10.3125C14.5313 9.98438 14.9103 9.79688 15.3403 9.75C15.7703 9.70313 16.1725 9.8125 16.5469 10.0781C16.6719 10.1563 16.8009 10.215 16.9341 10.2544C17.0672 10.2938 17.2038 10.3131 17.3438 10.3125C17.75 10.3125 18.0859 10.1797 18.3516 9.91406C18.6172 9.64844 18.75 9.3125 18.75 8.90625C18.75 8.5 18.6172 8.16406 18.3516 7.89844C18.0859 7.63281 17.75 7.5 17.3438 7.5C16.7969 7.5 16.4141 7.4725 16.1953 7.4175C15.9766 7.3625 15.75 7.21813 15.5156 6.98438C15.2813 6.75063 15.1369 6.52406 15.0825 6.30469C15.0281 6.08531 15.0006 5.7025 15 5.15625C15 4.75 14.8672 4.41406 14.6016 4.14844C14.3359 3.88281 14 3.75 13.5938 3.75C13.1875 3.75 12.8516 3.88281 12.5859 4.14844C12.3203 4.41406 12.1875 4.75 12.1875 5.15625C12.1875 5.32813 12.2031 5.47281 12.2344 5.59031C12.2656 5.70781 12.3281 5.82875 12.4219 5.95313C12.6875 6.32813 12.7969 6.73063 12.75 7.16063C12.7031 7.59063 12.5156 7.96938 12.1875 8.29688L8.29688 12.1875C7.96875 12.5156 7.58969 12.7031 7.15969 12.75C6.72969 12.7969 6.3275 12.6875 5.95313 12.4219C5.82813 12.3438 5.69938 12.2853 5.56688 12.2466C5.43438 12.2078 5.2975 12.1881 5.15625 12.1875C4.75 12.1875 4.41406 12.3203 4.14844 12.5859C3.88281 12.8516 3.75 13.1875 3.75 13.5938C3.75 14 3.88281 14.3359 4.14844 14.6016C4.41406 14.8672 4.75 15 5.15625 15C5.70313 15 6.08594 15.0275 6.30469 15.0825C6.52344 15.1375 6.75 15.2819 6.98438 15.5156C7.21875 15.7494 7.36313 15.9759 7.4175 16.1953C7.47188 16.4147 7.49938 16.7975 7.5 17.3438C7.5 17.75 7.63281 18.0859 7.89844 18.3516C8.16406 18.6172 8.5 18.75 8.90625 18.75C9.3125 18.75 9.64844 18.6172 9.91406 18.3516Z" fill="#396C3A"/>
</svg>
