<svg width="26" height="26" viewBox="0 0 26 26" fill="none" xmlns="http://www.w3.org/2000/svg">
<path d="M11.7269 23.8337C11.2394 23.8337 10.8198 23.6712 10.4681 23.3462C10.1164 23.0212 9.90405 22.6239 9.83111 22.1545L9.58736 20.367C9.35263 20.2767 9.13163 20.1684 8.92436 20.042C8.71708 19.9156 8.51377 19.7802 8.31444 19.6357L6.63527 20.3399C6.18388 20.5385 5.7325 20.5566 5.28111 20.3941C4.82972 20.2316 4.47763 19.9427 4.22486 19.5274L2.95194 17.3066C2.69916 16.8913 2.62694 16.4489 2.73527 15.9795C2.84361 15.51 3.08736 15.1219 3.46652 14.8149L4.90194 13.7316C4.88388 13.6052 4.87486 13.4831 4.87486 13.3654V12.6342C4.87486 12.5172 4.88388 12.3955 4.90194 12.2691L3.46652 11.1857C3.08736 10.8788 2.84361 10.4906 2.73527 10.0212C2.62694 9.55171 2.69916 9.10935 2.95194 8.69408L4.22486 6.47324C4.47763 6.05796 4.82972 5.76908 5.28111 5.60658C5.7325 5.44408 6.18388 5.46213 6.63527 5.66074L8.31444 6.36491C8.51305 6.22046 8.72069 6.08505 8.93736 5.95866C9.15402 5.83227 9.37069 5.72394 9.58736 5.63366L9.83111 3.84616C9.90333 3.37671 10.1157 2.97949 10.4681 2.65449C10.8206 2.32949 11.2402 2.16699 11.7269 2.16699H14.2728C14.7603 2.16699 15.1802 2.32949 15.5327 2.65449C15.8851 2.97949 16.0971 3.37671 16.1686 3.84616L16.4124 5.63366C16.6471 5.72394 16.8684 5.83227 17.0764 5.95866C17.2844 6.08505 17.4874 6.22046 17.6853 6.36491L19.3644 5.66074C19.8158 5.46213 20.2672 5.44408 20.7186 5.60658C21.17 5.76908 21.5221 6.05796 21.7749 6.47324L23.0478 8.69408C23.3005 9.10935 23.3728 9.55171 23.2644 10.0212C23.1561 10.4906 22.9124 10.8788 22.5332 11.1857L21.0978 12.2691C21.1158 12.3955 21.1249 12.5175 21.1249 12.6352V13.3654C21.1249 13.4831 21.1068 13.6052 21.0707 13.7316L22.5061 14.8149C22.8853 15.1219 23.129 15.51 23.2374 15.9795C23.3457 16.4489 23.2735 16.8913 23.0207 17.3066L21.7207 19.5274C21.4679 19.9427 21.1158 20.2316 20.6644 20.3941C20.2131 20.5566 19.7617 20.5385 19.3103 20.3399L17.6853 19.6357C17.4867 19.7802 17.279 19.9156 17.0624 20.042C16.8457 20.1684 16.629 20.2767 16.4124 20.367L16.1686 22.1545C16.0964 22.6239 15.8844 23.0212 15.5327 23.3462C15.181 23.6712 14.761 23.8337 14.2728 23.8337H11.7269ZM11.9165 21.667H14.0561L14.4353 18.7962C14.995 18.6517 15.5143 18.4397 15.9931 18.1602C16.4719 17.8807 16.9096 17.542 17.3061 17.1441L19.9874 18.2545L21.0436 16.4128L18.7144 14.6524C18.8047 14.3996 18.8679 14.1335 18.904 13.854C18.9401 13.5745 18.9582 13.2899 18.9582 13.0003C18.9582 12.7107 18.9401 12.4265 18.904 12.1477C18.8679 11.869 18.8047 11.6025 18.7144 11.3482L21.0436 9.58783L19.9874 7.74616L17.3061 8.88366C16.9089 8.46838 16.4712 8.12099 15.9931 7.84149C15.515 7.56199 14.9957 7.34966 14.4353 7.20449L14.0832 4.33366H11.9436L11.5644 7.20449C11.0047 7.34894 10.4858 7.56127 10.0077 7.84149C9.52958 8.12171 9.09155 8.46008 8.69361 8.85658L6.01236 7.74616L4.95611 9.58783L7.28527 11.3212C7.195 11.592 7.1318 11.8628 7.09569 12.1337C7.05958 12.4045 7.04152 12.6934 7.04152 13.0003C7.04152 13.2892 7.05958 13.5691 7.09569 13.8399C7.1318 14.1107 7.195 14.3816 7.28527 14.6524L4.95611 16.4128L6.01236 18.2545L8.69361 17.117C9.09083 17.5323 9.52886 17.88 10.0077 18.1602C10.4865 18.4405 11.0054 18.6524 11.5644 18.7962L11.9165 21.667ZM13.054 16.792C14.1012 16.792 14.995 16.4219 15.7353 15.6816C16.4755 14.9413 16.8457 14.0475 16.8457 13.0003C16.8457 11.9531 16.4755 11.0594 15.7353 10.3191C14.995 9.5788 14.1012 9.20866 13.054 9.20866C11.9887 9.20866 11.0907 9.5788 10.3598 10.3191C9.62888 11.0594 9.26308 11.9531 9.26236 13.0003C9.26163 14.0475 9.62744 14.9413 10.3598 15.6816C11.0921 16.4219 11.9902 16.792 13.054 16.792Z" fill="#396C3A"/>
</svg>
