<svg width="29" height="29" viewBox="0 0 29 29" fill="none" xmlns="http://www.w3.org/2000/svg">
<path d="M13.4288 15.1235C13.2004 14.8951 13.0862 14.6124 13.0862 14.2753V6.92946L8.4467 11.5392C8.22861 11.7573 7.95618 11.8715 7.62944 11.8818C7.30269 11.8921 7.01996 11.7779 6.78124 11.5392C6.56315 11.3211 6.4541 11.0435 6.4541 10.7065C6.4541 10.3694 6.56315 10.0919 6.78124 9.87376L13.4431 3.21193C13.562 3.09297 13.6909 3.0089 13.8297 2.95973C13.9685 2.91056 14.1172 2.88558 14.2758 2.88478C14.4344 2.88399 14.5831 2.90897 14.7219 2.95973C14.8607 3.01049 14.9896 3.09455 15.1085 3.21193L21.7704 9.87376C21.9885 10.0919 22.0975 10.3647 22.0975 10.6922C22.0975 11.0197 21.9885 11.3021 21.7704 11.5392C21.5324 11.7771 21.2501 11.8961 20.9234 11.8961C20.5966 11.8961 20.3139 11.7771 20.0752 11.5392L15.4654 6.92946V14.2753C15.4654 14.6124 15.3512 14.8951 15.1228 15.1235C14.8944 15.3519 14.6121 15.4657 14.2758 15.4649C13.9395 15.4641 13.6572 15.3499 13.4288 15.1223M13.4288 21.0704C13.2004 20.8436 13.0862 20.5612 13.0862 20.2234V19.0338C13.0862 18.6967 13.2004 18.4144 13.4288 18.1868C13.6572 17.9592 13.9395 17.8449 14.2758 17.8442C14.6121 17.8434 14.8948 17.9576 15.124 18.1868C15.3532 18.416 15.467 18.6983 15.4654 19.0338V20.2234C15.4654 20.5604 15.3512 20.8432 15.1228 21.0716C14.8944 21.3 14.6121 21.4138 14.2758 21.413C13.9395 21.4122 13.6572 21.298 13.4288 21.0704ZM13.4288 25.8288C13.2004 25.602 13.0862 25.3197 13.0862 24.9818C13.0862 24.644 13.2004 24.3616 13.4288 24.1348C13.6572 23.908 13.9395 23.7938 14.2758 23.7922C14.6121 23.7906 14.8948 23.9048 15.124 24.1348C15.3532 24.3648 15.467 24.6472 15.4654 24.9818C15.4638 25.3165 15.3496 25.5992 15.1228 25.83C14.896 26.0608 14.6137 26.1746 14.2758 26.1714C13.938 26.1683 13.6556 26.0541 13.4288 25.8288Z" fill="#103911"/>
</svg>
