<?xml version="1.0" encoding="UTF-8"?>
<svg id="Layer_2" data-name="Layer 2" xmlns="http://www.w3.org/2000/svg" viewBox="0 0 773 104.62">
  <defs>
    <style>
      .cls-1 {
        fill: #fdfefe;
      }

      .cls-2 {
        fill: #f9fdfc;
      }
    </style>
  </defs>
  <g id="Layer_1-2" data-name="Layer 1">
    <g>
      <g>
        <path class="cls-2" d="M574.32,95.88V13.88h34.46c21.72,0,35.62,20.1,35.36,40.39-.24,18.68-16.48,41.61-36.36,41.61h-33.46ZM588.3,84.88h14.48c5.04,0,14.86-4.69,18.52-8.46,10.79-11.12,10.91-37.73-2.7-46.38-1.14-.72-9.2-4.16-9.83-4.16h-20.48v59Z"/>
        <path class="cls-2" d="M257.69,95.88h-14.98l-6.88-20.41c-.91-1.33-27.99-.56-32.12-.13l-6.95,20.54h-14.98l31.42-82.07c3.29.73,13.13-1.22,15.03,1.06l29.46,81ZM207.75,63.88h23.97l-12.48-35.01-11.5,35.01Z"/>
        <path class="cls-2" d="M562.33,95.88h-14.98l-6.88-20.41c-.91-1.33-27.99-.56-32.12-.13l-6.95,20.54h-14.98l31.42-82.07c3.29.73,13.13-1.22,15.03,1.06l29.46,81ZM536.36,63.88l-12.97-36-11,36h23.97Z"/>
        <path class="cls-2" d="M281.66,8.88v37c8.36-13.13,31.38-14.69,37.17,1.29.35.96,1.79,5.76,1.79,6.21v42.5h-13.98v-38.5c0-.36-1.74-5.19-2.13-5.87-3.98-6.95-14.21-5.73-18.86-.14-1.16,1.39-3.99,7.59-3.99,9.01v35.5h-13.98V10.38c0-2.52,11.83-1.2,13.98-1.5Z"/>
        <path class="cls-2" d="M394.32,66.68c0,17.33-14.03,31.38-31.35,31.38s-31.35-14.05-31.35-31.38,14.03-31.38,31.35-31.38,31.35,14.05,31.35,31.38ZM358.3,47.11c-17.45,3.61-17.25,45.1,9.53,39.54,16.73-3.47,17.48-45.12-9.53-39.54Z"/>
        <path class="cls-2" d="M406.51,36.88c9.5.51,15.13-3.55,14.48,9.01,3.44-7.02,8.86-11.09,17.03-10.06,6.25.79,2.49,9.12,3.44,14.04-6.43-3.16-13.61-2.82-17.81,3.67-.77,1.19-3.16,6.87-3.16,7.84v34.5h-13.98v-59Z"/>
        <path class="cls-1" d="M450.46,36.88c2.01.34,12.53-.46,12.99,0,.82.82-1.64,9.97,1.48,9.01,2.69-6.69,8.56-10.99,16.04-10.06,6.14.77,2.58,8.24,3.45,13.05-7.5-2.24-14.38-1.15-18.17,6.3-.64,1.25-2.8,8.25-2.8,9.2v31.5h-12.98v-59Z"/>
        <g>
          <path class="cls-2" d="M648.23,95.88l29.45-81.02c1.16-1.4,12.54-1.36,15.04-1.06,4.36.53,27.06,72.93,31.42,82.07h-14.48l-7.6-20.88-31.89.34-6.95,20.54h-14.98ZM685.69,27.87l-12.49,36.01h24.97"/>
          <path class="cls-2" d="M770.08,49.87c-6.43-2.8-17.94-7.04-23.91-1.44-9.43,8.86,11.2,13.37,15.97,15.9,19.89,10.56,10.12,31.53-10.54,33.53-3.25.31-19.94-.96-21.34-3.12-.95-1.48.42-10.28-.12-12.86.52-.59,7.33,3.99,8.97,4.51,6.35,2.01,23.66,1.7,19.24-8.26-3.4-7.66-23.84-6.13-27.53-20.43-4.76-18.43,17.51-23.58,31.52-21.56,10.09,1.45,7.66,4.97,7.75,13.73Z"/>
        </g>
      </g>
      <path class="cls-1" d="M19.47,14.88c-4.66.98-4.77,7.16.03,7.97l88.92-.02c5.14-.17,10,4.57,10.46,9.52-1.4,19.34,1.78,41.03.02,60.07-.55,5.97-4.71,10.31-10.63,11.36-29.54-1.52-61.6,2.34-90.84.13-8.01-.6-15.11-3.84-16.35-12.63-3.31-23.36,2.31-53.81-.11-77.94C2.16,6.91,6.81,1.44,13.43.83c28.46-2.63,60.99,2.01,89.89.1,7.84,1.24,10.56,13.94,6.05,13.94H19.47ZM103.99,63.15c0-4.09-3.31-7.4-7.39-7.4s-7.39,3.31-7.39,7.4,3.31,7.4,7.39,7.4,7.39-3.31,7.39-7.4Z"/>
    </g>
  </g>
</svg>