<svg width="1825" height="2739" viewBox="0 0 1825 2739" fill="none" xmlns="http://www.w3.org/2000/svg">
<g clip-path="url(#clip0_423_4561)">
<path fill-rule="evenodd" clip-rule="evenodd" d="M913.102 2511.85C408.614 2511.85 -0.412109 2095.57 -0.412109 1582.12C-0.412109 1072.67 291.113 478.042 746.043 265.561C798.328 241.063 855.36 228.356 913.102 228.34V2511.85Z" fill="white" fill-opacity="0.38"/>
<path opacity="0.3" d="M1080.16 265.561C1027.88 241.063 970.847 228.356 913.105 228.34V1027.57L1419.19 521.543C1320.65 413.418 1206.8 324.704 1080.05 265.561" fill="white" fill-opacity="0.38"/>
<path opacity="0.4" d="M913.105 1027.62V1655.59L1668.35 900.432C1603.04 761.138 1518.99 631.32 1419.19 521.598L913.105 1027.62Z" fill="white" fill-opacity="0.38"/>
<path opacity="0.6" d="M913.105 2226.38L1805.04 1334.55C1779 1184.38 1733.03 1038.35 1668.35 900.344L913.105 1655.5V2226.38Z" fill="white" fill-opacity="0.38"/>
<path opacity="0.7" d="M1805.04 1334.66L913.105 2226.48V2511.92C1417.59 2511.92 1826.62 2095.64 1826.62 1582.19C1826.62 1501.13 1819.31 1418.01 1805.04 1334.66Z" fill="white" fill-opacity="0.38"/>
</g>
<defs>
<clipPath id="clip0_423_4561">
<rect width="1825" height="2739" fill="white"/>
</clipPath>
</defs>
</svg>
