<svg width="2538" height="3809" viewBox="0 0 2538 3809" fill="none" xmlns="http://www.w3.org/2000/svg">
<g clip-path="url(#clip0_412_3533)">
<path fill-rule="evenodd" clip-rule="evenodd" d="M1269.83 3493.12C568.25 3493.12 -0.576172 2914.21 -0.576172 2200.18C-0.576172 1491.71 404.843 664.792 1037.51 369.305C1110.22 335.236 1189.53 317.565 1269.83 317.543V3493.12Z" fill="#396C3A" fill-opacity="0.46"/>
<path opacity="0.3" d="M1502.17 369.305C1429.46 335.236 1350.14 317.565 1269.84 317.543V1428.99L1973.65 725.286C1836.61 574.923 1678.28 451.552 1502.01 369.305" fill="#396C3A" fill-opacity="0.46"/>
<path opacity="0.4" d="M1269.84 1429.07V2302.35L2320.16 1252.19C2229.32 1058.48 2112.44 877.948 1973.65 725.361L1269.84 1429.07Z" fill="#396C3A" fill-opacity="0.46"/>
<path opacity="0.6" d="M1269.84 3096.12L2510.24 1855.9C2474.03 1647.06 2410.11 1443.99 2320.16 1252.07L1269.84 2302.23V3096.12Z" fill="#396C3A" fill-opacity="0.46"/>
<path opacity="0.7" d="M2510.24 1856.05L1269.84 3096.27V3493.21C1971.43 3493.21 2540.25 2914.31 2540.25 2200.28C2540.25 2087.55 2530.09 1971.96 2510.24 1856.05Z" fill="#396C3A" fill-opacity="0.46"/>
</g>
<defs>
<clipPath id="clip0_412_3533">
<rect width="2538" height="3809" fill="white"/>
</clipPath>
</defs>
</svg>
