<svg width="872" height="1090" viewBox="0 0 872 1090" fill="none" xmlns="http://www.w3.org/2000/svg">
<g clip-path="url(#clip0_222_1222)">
<path fill-rule="evenodd" clip-rule="evenodd" d="M435.997 1090C195.216 1090 -0.00292969 891.288 -0.00292969 646.202C-0.00292969 403.023 139.136 119.187 356.264 17.7621C381.218 6.0681 408.438 0.00263816 435.997 -0.00488281V1090Z" fill="#396C3A"/>
<path opacity="0.3" d="M515.734 17.7621C490.779 6.0681 463.559 0.00263816 436 -0.00488281V381.495L677.544 139.951C630.51 88.3396 576.174 45.9931 515.679 17.7621" fill="#396C3A"/>
<path opacity="0.4" d="M436 381.521V681.271L796.463 320.808C765.289 254.318 725.177 192.351 677.544 139.977L436 381.521Z" fill="#396C3A"/>
<path opacity="0.6" d="M436 953.729L861.7 528.029C849.273 456.346 827.334 386.643 796.463 320.766L436 681.229V953.729Z" fill="#396C3A"/>
<path opacity="0.7" d="M861.7 528.079L436 953.779V1090.03C676.781 1090.03 872 891.322 872 646.235C872 607.54 868.512 567.864 861.7 528.079Z" fill="#396C3A"/>
</g>
<defs>
<clipPath id="clip0_222_1222">
<rect width="872" height="1090" fill="white"/>
</clipPath>
</defs>
</svg>
