<?xml version="1.0" encoding="UTF-8"?>
<svg id="Layer_2" data-name="Layer 2" xmlns="http://www.w3.org/2000/svg" viewBox="0 0 1309.01 349.09">
  <defs>
    <style>
      .cls-1 {
        letter-spacing: 0em;
      }

      .cls-2 {
        fill: #fff;
        font-family: MyriadPro-Regular, 'Myriad Pro';
        font-size: 282.51px;
      }

      .cls-3 {
        fill: #fefefe;
      }
    </style>
  </defs>
  <g id="Layer_2-2" data-name="Layer 2">
    <g id="Layer_1-2" data-name="Layer 1-2">
      <g>
        <path class="cls-3" d="M134.8,90.84c.3-.3-.54-6.02,2.85-6.56,33.03-11.14,64.83-26.06,98.05-36.27,3.28,14.35,11.39,28.03,12.03,42.81,48.47-9.21,29.24,40.89,31.75,70.34-14.5,3.25-28.11-.15-42.57,7.05-27.15,13.53-25.11,55.55,2.25,67.35,2.14.92,12.05,3.38,13.47,3.38l27.59.9c-.43,3.39,8.81,60.04-13.22,59.56l-246.07.48c-10.29-.32-16.71-6.19-17.92-16.32-1.82-63.08-5.74-132.33-.03-193.65.34-3.67.65-7.83,2.72-10.98.77-1.17,7.92-6.94,8.47-6.94h48.76c1.7,2.94-10.33,10.28-11.12,10.28h-29.09c-3.22,0-3.22,8.56,0,8.56h112.08Z"/>
        <path class="cls-3" d="M62.94,85.7L180.14,0c2.45-.02,3.68,1.98,5.2,3.43,2.96,2.82,27.25,34.39,29.02,37.74,3.68,6.95-3.88,5.71-9.34,7.79-12.33,4.69-86.68,36.74-91.61,36.74,0,0-50.47,0-50.47,0Z"/>
        <path class="cls-3" d="M297.34,161.06v52.24c0,1.21-15.96,15.22-18.33,15.91-4.24,1.22-26.99.97-31.75-.02-23.53-4.91-27.82-40.27-6.98-52.45,12.6-7.37,26.56-1.01,38.68-4.1,6.27-1.6,11.12-11.6,18.38-11.57h0ZM267.21,201.55c0-6.84-5.54-12.38-12.37-12.38s-12.37,5.54-12.37,12.38,5.54,12.38,12.37,12.38,12.37-5.54,12.37-12.38Z"/>
        <path class="cls-3" d="M287.08,154.21v-60.8c.62-7.71-5.08-9.9-8.06-10.77-9.58-2.8-27.69,5.84-26.16-10.64h33.36c5.81,0,10.71,10.75,11.2,16.19.98,10.73,1.67,47.14-.12,56.57-.69,3.62-6.23,9.52-10.23,9.46h0Z"/>
        <path class="cls-3" d="M297.34,227.86v48.81c0,3.64-6.38,7.52-10.27,5.99v-47.1c0-.67,8.12-8.97,10.27-7.71h0Z"/>
      </g>
    </g>
    <text class="cls-2" transform="translate(411.22 278.46)"><tspan class="cls-1" x="0" y="0">M</tspan><tspan x="228.83" y="0">onefy</tspan></text>
  </g>
</svg>