<?xml version="1.0" encoding="UTF-8"?>
<svg id="Layer_2" data-name="Layer 2" xmlns="http://www.w3.org/2000/svg" viewBox="0 0 817.8 228.15">
  <defs>
    <style>
      .cls-1 {
        fill: #fff;
      }
    </style>
  </defs>
  <g id="Layer_1-2" data-name="Layer 1">
    <g>
      <g>
        <path class="cls-1" d="M50.7,0c10.6,4.05,19.74,9.86,25.5,19.97,1.36,2.38,5.46,11.39,5.46,13.53v64.5l6.58-11.91c23.37-30.78,71.07-16.6,74.36,21.38,1.85,21.36,1.69,60.59,0,82.07-1.56,19.82-16.2,34.1-35,38.46-3.82-.34-8.29.48-11.99,0-13.21-1.71-34.96-18.39-34.96-32.5v-39.5l-9.01,15.48c-22.26,24.96-63.07,14.75-71.44-17.43l-.21-122.31C3.73,16.19,15.35,5.81,29.73,0h20.98Z"/>
        <ellipse class="cls-1" cx="202.19" cy="70.22" rx="41.24" ry="41.29"/>
      </g>
      <g>
        <path class="cls-1" d="M286.42,39c.33.33-.25,5.65.01,6.99,1.54.09,1.22-1.96,2.46-3.02,10.42-8.81,24.62-7.4,34.05,2,1.42,1.41.93,3.57,2.93,3.02,9.98-16.67,37.99-13.69,43.78,5.17.31,1.01,1.68,6.83,1.68,7.32v46.5h-16.98v-43.5c0-8.96-11.65-12.96-18.9-8.92-1.81,1.01-6.08,6.01-6.08,7.92v44.5h-16.48c-.11,0-1.5-1.39-1.5-1.5v-45c0-1.01-2.9-4.9-4.27-5.72-6.74-4.05-16.48-1.34-19.2,6.22-.27.74-1.5,5.22-1.5,5.5v40.5h-16.98V40.5c0-.11,1.39-1.5,1.5-1.5,2.22,0,14.93-.55,15.48,0Z"/>
        <path class="cls-1" d="M539.13,78h-48.94c1.2,13.54,16.4,20.8,27.67,13.2,3.74-2.53,5.4-8.14,5.9-8.28,3.78-1.01,10.13,3.77,14.38,3.08-5.81,29.27-47.82,30.8-60.96,5.52-12.1-23.27,1.86-54.59,29.49-54.59,23.46,0,34.79,19.39,32.46,41.06ZM521.15,65c-.48-18.03-28.57-17.04-29.96,0h29.96Z"/>
        <path class="cls-1" d="M396.3,39v44.5c0,3.38,4.8,8.8,8.54,9.44,25.97,4.44,15.55-34.92,17.37-50.49.12-1.01.46-3.45,1.55-3.45h15.48l1,68h-16.98c-.29,0,.64-4.49-.49-5-10.58,10.47-29.43,9.6-38.46-2.51-1.01-1.36-5-8.95-5-10v-50.5h16.98Z"/>
        <path class="cls-1" d="M467.21,39v80.5c0,1.42-3.79,7.54-5.02,8.98-6.65,7.82-15.53,7.63-24.95,5.52v-15c6.13,1.69,11.45,1.5,12.75-5.74,3.63-20.25-2.3-49.63.19-70.81.12-1.01.46-3.45,1.55-3.45h15.48Z"/>
        <path class="cls-1" d="M585.08,39v17c-6.58-.28-16.43-.05-20.19,6.28-.61,1.02-2.78,6.5-2.78,7.22v37.5h-16.48c-.11,0-1.5-1.39-1.5-1.5V41.5c0-.33,1.32-1.52,1-2.5h15.48c1.77,0,1.67,5.6,1.51,7,5.96-5.82,14.74-9.37,22.96-7Z"/>
      </g>
      <ellipse class="cls-1" cx="458.67" cy="16.39" rx="11.14" ry="11.16"/>
      <g>
        <path class="cls-1" d="M314.39,120v15c-13.68-2.83-17.18,4.33-15.98,17h44.95v66.5c0,.11-1.39,1.5-1.5,1.5h-14.98c-.11,0-1.5-1.39-1.5-1.5v-51.5h-26.97v53h-16.98v-53h-11.99v-15h11.99v-14.5c0-1.29,2.6-6.99,3.56-8.43,6.66-9.94,18.38-12,29.4-9.07Z"/>
        <path class="cls-1" d="M663.98,191c.96,12.49,15.39,19.6,26.35,13.88,3.45-1.8,7.3-9.54,8.21-9.76,1.96-.47,10.28,4.42,13.38,3.89-8.86,33.83-56.95,28.75-64.48-3.95-11.42-49.63,58.28-61.82,65.03-19.1.39,2.44,1.47,15.05-1.05,15.05h-47.44ZM694.95,178c.17-18.02-29.86-17.76-29.96,0h29.96Z"/>
        <path class="cls-1" d="M817.8,220h-15.98c-.3,0-.69-5.25-1.01-6-10.71,11.24-30.37,11.28-39.38-2.07s.04-27.24,13.76-31.09c6.1-1.71,17.8-1.5,22.4-3.58,1.4-.63,1.95-1.23,2.24-2.78,2.18-11.56-16.88-13.44-22.44-4.45-1.44,2.33-1.34,5.73-1.56,5.95-1.27,1.25-13.22-3.04-15.89-3.06-.52-23.46,36.96-29.88,50.4-15.96,3.32,3.43,7.46,12.93,7.46,17.54v45.5ZM799.81,189c-5.16,2.39-21.92,1.53-23.75,7.71-3.68,12.44,11.63,13.5,19.11,8.15,4.98-3.56,4.88-10.26,4.63-15.85Z"/>
        <path class="cls-1" d="M463.22,220c-.52-.52.8-5.88-.49-7-3.71,4.31-7.68,7.49-13.44,8.54-30.85,5.67-42.54-33.44-11.08-41.1,4.07-.99,21.06-1.93,22.53-4.44,6.04-10.29-15.77-17.55-22.25-5.29-.73,1.37-1.09,5.02-1.29,5.2-1.58,1.37-13.06-3.09-15.88-2.96,1.86-16.44,15.84-23.82,31.48-23.01,38.37,1.99,22.9,42.59,27.01,68,.51.74-.77,2.04-1.09,2.04-2.21,0-14.93.55-15.48,0ZM461.21,189c-6.82,3.11-23.6.24-24.03,10.52-.54,12.93,21.56,9.9,23.81-1.25.61-3.04.08-6.21.22-9.27Z"/>
        <path class="cls-1" d="M414.28,220h-16.98v-43.5c0-.82-3.11-7.06-4.05-7.94-3.8-3.56-12.1-3.43-16.43-.56-1.8,1.19-5.49,6.65-5.49,8.51v43.5h-16.48c-.11,0-1.5-1.39-1.5-1.5v-66.5h16.98c.35,0-.26,6.07,0,7,10.79-13.35,34.11-12.43,41.45,4,.42.94,2.49,7.11,2.49,7.5v49.5Z"/>
        <path class="cls-1" d="M505.17,220h-16.98v-68h16.98c.3,0-.64,5.32.49,6,12.74-13.97,36.44-9.74,41.97,8.99,2.42,8.18,2.61,40.4,1.53,49.57-.12,1.01-.46,3.45-1.55,3.45h-14.98c-.56,0-1.53-1.68-1.5-2.5-.93-12.89,1.23-27.36.04-40.04-1.41-15.02-20.51-15.24-24.53-3.48-.24.7-1.48,6.19-1.48,6.52v39.5Z"/>
        <path class="cls-1" d="M619.01,172.96l-15.94,5.04c-.69-8.83-8.29-12.61-16.47-12.03-25.46,1.83-18.72,49.02,8.45,38.51,6.54-2.53,8.93-10.41,9.65-10.56.98-.2,13.79,3.58,14.29,4.14,1.83,2.07-4.23,11.48-5.95,13.42-19.96,22.46-57.26,7.42-59.9-21.99-3.74-41.74,53.55-56.74,65.88-16.53Z"/>
        <path class="cls-1" d="M758.87,169c-7.32-.19-15.94-1.12-20.44,6.04-.61.97-2.53,5.75-2.53,6.46v38.5h-16.48c-.11,0-1.5-1.39-1.5-1.5v-66.5h16.98c.4,0-.3,6.89,0,8,3.54-3.74,7.59-7.44,12.92-8.56,1.87-.39,11.04-1.35,11.04,1.06v16.5Z"/>
        <rect class="cls-1" x="624.03" y="152" width="16.98" height="68"/>
        <ellipse class="cls-1" cx="632.51" cy="129.21" rx="11.12" ry="11.13"/>
        <ellipse class="cls-1" cx="334.45" cy="129.03" rx="11.1" ry="11.11"/>
      </g>
    </g>
  </g>
</svg>