<?xml version="1.0" encoding="UTF-8"?>
<svg id="Layer_2" data-name="Layer 2" xmlns="http://www.w3.org/2000/svg" viewBox="0 0 1279.49 713.34">
  <defs>
    <style>
      .cls-1 {
        fill: #0d1117;
      }
    </style>
  </defs>
  <g id="Layer_1-2" data-name="Layer 1">
    <g>
      <g>
        <path class="cls-1" d="M473.56,713.34c1.04-3.72-3.1-4.72-5.35-6.62-27.78-23.44-53.82-48.81-77.97-75.95-11.42-12.83-22.77-25.26-34.67-37.7-17.14-17.91-33.2-36.97-48.61-56.38-18.07-22.76-34.09-49.42-45.5-76.19-17.9-41.99,8.41-75.21,23.47-112.4,12.43-30.69,17.72-67.01,10.08-99.07-.36-1.51-2.95-8.85-2.89-9.33s.79-.88,1.52-.51c.84.42,3.99,4.49,4.67,5.53,14.94,22.92,25.64,65.09,23.87,92.31-.83,12.68-4.99,24.36-5.62,37.18-.22,4.38-.16,14.74,1.9,18.48.11.19,2.74,3.11,2.92,3.23,1.91,1.3,3.17-.42,4.36-1.83,3.24-3.86,6.66-13.44,7.08-18.4.88-10.26-.81-25.55-3.24-35.13-.5-1.97-2.31-3.51-1.79-5.83,2.62-.45,4.52,1.54,6.36,3.07,7.13,5.94,12.18,12.21,16,20.7,7.93,17.63,8.35,30.2-4.53,45.77-7.23,8.75-15.02,15.09-19.96,25.91-9.59,21.02-6.82,42.65,4.69,62.12,33.92,57.34,82.81,101.09,138.17,137.67,4.75,3.14,14.66,10.42,19.35,12.25.52.2.9.4,1.5.28,1.07-5.7,2.17-11.47,3.53-17.1,4.85-20.24,8.25-40.5,10.24-61.63.78-8.33.47-17.95,1.49-26.02.12-.97.98-.48,1.1-1.46.68-5.36.1-11.92.47-17.35.5-7.26,2.15-16.43,2.05-23.42-.12-8.65-3.55-21.84-6-30.22-8.5-29.09-38.78-53.84-66.65-63.82-6.78-2.43-14.27-3.71-21.17-5.85-1.28-.4-3.37-.59-4.07-1.78,6.51.39,13.64.04,20.07.57,5.56.46,13.14,2.06,18.78,3.14,9.79,1.87,19.54,4.21,28.95,7.49-3.96-5.36-8.71-10.56-11.99-16.29-19.26-33.65-26.36-81.14-18.63-118.61,5.1-24.71,17.18-56.04,39.33-70.15,1.41-.9,7.81-4.9,8.91-4.88.69.01,1.31.49,1.2,1.21-.2,1.34-3.45,4.37-4.19,5.54-18.09,28.65-17.61,66.38-8.87,97.82,1.12,4.04,2.79,11.95,4.55,15.32.2.39.38.89.9.88-.05-.85.12-1.64.36-2.44,5.95-19.7,26.63-38.3,45.18-46.56,2.58-1.15,17.6-7.07,19.2-5.51-.11,3.97-4.98,4.84-7.66,7.37-8.84,8.34-17.88,27.53-21.13,39-16.54,58.34,14.65,109.01,47.66,153.63,9.82,13.27,17.78,26.59,25.63,41.16,20.37,37.83,35.53,76.81,46.29,118.31,3.91,15.07,6.91,30.41,10.16,45.63l1.48-1.93c6.8-22.16,23.39-39.02,34.69-58.58,10.77-18.65,17.62-38.53,23.54-58.92,3.67-12.63,1.37-25.61-2.26-37.62-4.9-16.25-12.9-29.95-22.3-43.59-15.37-22.31-19.54-47.23-15.65-74.13s17.65-47.46,38.07-63.35c1.63-1.27,4.05-2.64,5.8-3.89,2.99-1.04-1.31,4.3-1.8,5.35-14.55,31.08-11.61,65.68.74,96.79.21.54.15,1.52.88,1.4-2.3-24.71,10.49-46.82,29.84-61.13,1.85-1.36,4.45-2.42,6.31-3.88,1.45-1.14,4.98-6.1,6.67-4.28l-5.54,8.97c-11.63,24.25-12.63,52.12-2.86,77.13,3.14,8.03,8.05,14.75,11.39,22.25,2.61,5.86,4.25,11.22,7.22,17.13,10.88,21.67,9.27,47.64,9.14,71.44-.16,28.97.45,56.77,2.56,85.63.24,3.33.41,4.03,1.02,6.71.79,3.51.53,10.17,1.03,14.17,1.7,13.51,3.84,27.03,7.17,40.22.93,3.69,1.9,7.7,3.53,10.99h-322.17Z"/>
        <g>
          <path class="cls-1" d="M81.56,713.34c-6.02-11.25-11.66-22.41-17.19-34-9.61-20.18-18.46-41.06-26.15-62.04-13.13-35.82-24.84-75.77-23.97-114.17.53-23.6-.03-47.92,4.34-70.56,12.36-63.97,44.28-93.46,81.23-142.49,25.84-34.28,40.4-72.91,34.25-116.61-.92-6.55-.82-13.45-1.68-20.24-.97-7.7-4.02-18.28-6.23-25.87-1.91-6.54-6.05-14.83-7.16-20.87-1-5.43,4.04.66,5.29,2.35,3.4,4.59,6.01,9.61,8.76,14.57,17.69,31.96,30.66,66.98,33.63,104.07,1.09,13.67.15,27.33.01,41.01l10.69-11.47c4.83-3.05,8.81-7.35,13.83-10.13,6.24-3.47,27.24-10.94,33.94-10.83,1.63.03,3.93,1.19,2.18,2.61-.62.5-2.42.83-3.52,1.58-13.95,9.47-23.55,33.08-31.5,47.98-6.32,11.85-13.21,23.8-19.09,35.97-20,41.37-32.54,91.03-29.98,137.15.35,6.27,1.19,12.96,2.53,18.45.45,1.86.31,4.48.88,6.68,2.31,8.93,6.91,17.58,10.49,25.71,30.76,69.91,77.6,133.24,135.72,182.79l24.2,18.36H81.56Z"/>
          <path class="cls-1" d="M0,99.84c6.1-7.49,12.62-14.69,19.81-21.22,6.06-25.05,14.46-50.74,35.51-66.92,2.5-1.92,13.07-9.35,15.72-8.64.5.13.85.69.85,1.24,0,.52-4.75,7.31-5.54,8.75-2.57,4.68-5.35,10.38-6.85,15.57-2.23,7.71-2.9,15.81-2.92,23.83.5.51,5.39-2.99,6.37-3.56,21.32-12.41,44.23-23.7,68.43-28.92,1.57-.34,4.15-.68,5.74-.38-1.09,3.18-4.35,4.56-6.64,6.61C82.17,69.53,29.33,128.54,5.13,188.89c-1.94,4.85-3.09,10.08-5.13,14.89v-103.95Z"/>
        </g>
      </g>
      <g>
        <path class="cls-1" d="M988.93,713.34c-.06-5.01.79-10.03,1.04-15.01,2.13-42.6,1.49-85.6-9.66-126.54-9.04-33.17-20.48-62.39-26.39-96.32-5.56-31.93,2.86-63.35,16.29-91.44,14.03-29.34,21.83-54.38,20.27-87.79-.8-17.23-6.13-33.82-9.19-50.68,4.69,3.36,7.46,8.28,10.7,12.86,14.62,20.64,27.25,46.24,29.06,71.99.19,2.78-.13,5.62,0,8.4,1.89-1.67,3.68-3.25,5.84-4.6,8.69-5.43,20.15-9.25,30.21-11.07.72-.13,1.44-.18,2.17-.12,1.7,1.56-9.1,7.46-9.95,8.14-20,15.89-34.96,45.35-36.43,70.59-1.81,31.07,10.09,49.55,25.05,74.84,7.46,12.62,15.14,25.43,23.24,37.91,11.33,17.46,23.03,33.71,36.52,49.59,40.48,47.62,84.71,93.94,128.52,138.53,3.5,3.56,6.5,7.59,10.44,10.71h-247.74Z"/>
        <path class="cls-1" d="M1279.49,411.17c-2.91-3.17-5.11-7.26-7.64-10.82-39.36-55.36-73.26-114.84-115.8-168.21-29.16-36.59-52.77-57.78-96.79-75.99-12.75-5.28-26.19-9.15-38.73-14.8-.02-2.14,6.17-1.06,7.88-1.3,10.23-1.41,20.67-1.96,31.1-2.03,9.67-.07,19.35.1,28.82,2.06-.93-2.08-1.5-4.42-2.4-6.49-8.05-18.62-9.31-42.7-5.6-62.91s12.82-37,23.21-54.25c3.52-5.84,7.51-10.89,12.04-15.99,1.55-1.28,3.2.45,2.74,2.18-3.62,9.72-6.83,19.65-8.96,29.82-8.37,39.9,7.87,81.86,39.12,108.42,16.54,14.05,36.72,23.01,55.41,33.78,15.72,9.06,30.75,19.21,45.69,29.23,10.58,7.09,21.07,14.36,29.91,23.6v183.69Z"/>
      </g>
    </g>
  </g>
</svg>