<svg width="1308" height="1308" viewBox="0 0 1308 1308" fill="none" xmlns="http://www.w3.org/2000/svg">
<path fill-rule="evenodd" clip-rule="evenodd" d="M653.997 1199C413.216 1199 217.997 1000.29 217.997 755.202C217.997 512.023 357.136 228.187 574.264 126.762C599.218 115.068 626.438 109.003 653.997 108.995V1199Z" fill="#396C3A"/>
<path opacity="0.3" d="M733.734 126.762C708.779 115.068 681.559 109.003 654 108.995V490.495L895.544 248.951C848.51 197.34 794.174 154.993 733.679 126.762" fill="#396C3A"/>
<path opacity="0.4" d="M654 490.521V790.271L1014.46 429.808C983.289 363.318 943.177 301.351 895.544 248.977L654 490.521Z" fill="#396C3A"/>
<path opacity="0.6" d="M654 1062.73L1079.7 637.029C1067.27 565.346 1045.33 495.643 1014.46 429.766L654 790.229V1062.73Z" fill="#396C3A"/>
<path opacity="0.7" d="M1079.7 637.079L654 1062.78V1199.03C894.781 1199.03 1090 1000.32 1090 755.235C1090 716.54 1086.51 676.864 1079.7 637.079Z" fill="#396C3A"/>
</svg>
