<svg width="430" height="60" viewBox="0 0 430 60" fill="none" xmlns="http://www.w3.org/2000/svg">
<path d="M8.12719e-05 58.9518V2.71831H21.0876C25.4077 2.71831 29.0321 3.46882 31.9609 4.96985C34.9081 6.47087 37.1321 8.57597 38.6332 11.2851C40.1525 13.976 40.9122 17.1153 40.9122 20.7031C40.9122 24.3093 40.1433 27.4395 38.6057 30.0937C37.0864 32.7296 34.844 34.7707 31.8785 36.2168C28.9131 37.6446 25.2704 38.3585 20.9504 38.3585H5.93096V29.9015H19.5775C22.1036 29.9015 24.1721 29.5537 25.7829 28.8581C27.3938 28.1442 28.5836 27.11 29.3524 25.7554C30.1396 24.3825 30.5331 22.6984 30.5331 20.7031C30.5331 18.7079 30.1396 17.0055 29.3524 15.596C28.5653 14.1682 27.3663 13.0882 25.7555 12.356C24.1446 11.6055 22.067 11.2302 19.5226 11.2302H10.1869V58.9518H8.12719e-05ZM29.0504 33.471L42.9715 58.9518H31.604L17.93 33.471H29.0504ZM67.6423 59.7755C63.5236 59.7755 59.9541 58.8694 56.9338 57.0572C53.9134 55.245 51.5703 52.7097 49.9046 49.4514C48.2571 46.1931 47.4334 42.3856 47.4334 38.029C47.4334 33.6724 48.2571 29.8557 49.9046 26.5791C51.5703 23.3025 53.9134 20.7581 56.9338 18.9459C59.9541 17.1336 63.5236 16.2275 67.6423 16.2275C71.7609 16.2275 75.3305 17.1336 78.3508 18.9459C81.3712 20.7581 83.7051 23.3025 85.3525 26.5791C87.0183 29.8557 87.8512 33.6724 87.8512 38.029C87.8512 42.3856 87.0183 46.1931 85.3525 49.4514C83.7051 52.7097 81.3712 55.245 78.3508 57.0572C75.3305 58.8694 71.7609 59.7755 67.6423 59.7755ZM67.6972 51.8128C69.9304 51.8128 71.7976 51.1996 73.2986 49.9731C74.7996 48.7284 75.9162 47.0626 76.6484 44.9758C77.3989 42.889 77.7742 40.5643 77.7742 38.0015C77.7742 35.4205 77.3989 33.0866 76.6484 30.9998C75.9162 28.8947 74.7996 27.2198 73.2986 25.975C71.7976 24.7303 69.9304 24.1079 67.6972 24.1079C65.409 24.1079 63.5053 24.7303 61.986 25.975C60.485 27.2198 59.3592 28.8947 58.6087 30.9998C57.8765 33.0866 57.5104 35.4205 57.5104 38.0015C57.5104 40.5643 57.8765 42.889 58.6087 44.9758C59.3592 47.0626 60.485 48.7284 61.986 49.9731C63.5053 51.1996 65.409 51.8128 67.6972 51.8128ZM96.2876 58.9518V16.7767H105.788V23.9432H106.282C107.161 21.5269 108.616 19.6414 110.648 18.2869C112.68 16.914 115.105 16.2275 117.924 16.2275C120.78 16.2275 123.187 16.9231 125.146 18.3143C127.123 19.6872 128.514 21.5635 129.319 23.9432H129.759C130.692 21.6001 132.266 19.733 134.481 18.3418C136.715 16.9323 139.36 16.2275 142.417 16.2275C146.297 16.2275 149.464 17.454 151.917 19.9069C154.37 22.3598 155.596 25.9384 155.596 30.6429V58.9518H145.629V32.1805C145.629 29.5629 144.934 27.65 143.542 26.4418C142.151 25.2154 140.449 24.6021 138.435 24.6021C136.037 24.6021 134.161 25.3527 132.806 26.8537C131.47 28.3364 130.802 30.2676 130.802 32.6473V58.9518H121.054V31.7686C121.054 29.5903 120.396 27.8513 119.078 26.5517C117.778 25.252 116.075 24.6021 113.97 24.6021C112.543 24.6021 111.243 24.9683 110.071 25.7005C108.9 26.4144 107.966 27.4303 107.271 28.7483C106.575 30.0479 106.227 31.5673 106.227 33.3063V58.9518H96.2876ZM165.68 58.9518V16.7767H175.62V58.9518H165.68ZM170.678 10.7909C169.103 10.7909 167.749 10.2692 166.614 9.2258C165.479 8.1641 164.911 6.89189 164.911 5.40917C164.911 3.90815 165.479 2.63594 166.614 1.59254C167.749 0.530844 169.103 -5.76693e-06 170.678 -5.76693e-06C172.27 -5.76693e-06 173.625 0.530844 174.741 1.59254C175.876 2.63594 176.444 3.90815 176.444 5.40917C176.444 6.89189 175.876 8.1641 174.741 9.2258C173.625 10.2692 172.27 10.7909 170.678 10.7909ZM195.781 34.2398V58.9518H185.841V16.7767H195.341V23.9432H195.836C196.806 21.5818 198.353 19.7055 200.476 18.3143C202.618 16.9231 205.263 16.2275 208.411 16.2275C211.322 16.2275 213.857 16.8499 216.017 18.0947C218.195 19.3394 219.88 21.1425 221.069 23.5038C222.278 25.8652 222.872 28.73 222.854 32.0981V58.9518H212.914V33.6358C212.914 30.8168 212.182 28.611 210.718 27.0184C209.272 25.4259 207.267 24.6296 204.705 24.6296C202.966 24.6296 201.419 25.014 200.064 25.7828C198.728 26.5333 197.675 27.6225 196.907 29.0503C196.156 30.4781 195.781 32.208 195.781 34.2398ZM245.095 59.803C242.422 59.803 240.015 59.3271 237.874 58.3752C235.75 57.405 234.066 55.9772 232.821 54.0918C231.595 52.2064 230.982 49.8816 230.982 47.1175C230.982 44.7378 231.421 42.77 232.3 41.2141C233.178 39.6582 234.377 38.4134 235.897 37.4798C237.416 36.5463 239.127 35.8415 241.031 35.3656C242.953 34.8714 244.939 34.5144 246.99 34.2947C249.461 34.0385 251.465 33.8097 253.003 33.6083C254.54 33.3886 255.657 33.0591 256.353 32.6198C257.067 32.1622 257.423 31.4574 257.423 30.5056V30.3408C257.423 28.2723 256.81 26.6706 255.584 25.5357C254.357 24.4008 252.591 23.8333 250.284 23.8333C247.85 23.8333 245.919 24.3642 244.491 25.4259C243.081 26.4876 242.129 27.7415 241.635 29.1876L232.355 27.8696C233.087 25.3069 234.295 23.1652 235.979 21.4445C237.663 19.7055 239.722 18.4058 242.157 17.5455C244.592 16.6669 247.282 16.2275 250.23 16.2275C252.261 16.2275 254.284 16.4655 256.298 16.9414C258.311 17.4174 260.151 18.2045 261.817 19.3028C263.482 20.3828 264.819 21.8564 265.826 23.7235C266.851 25.5906 267.363 27.9245 267.363 30.7252V58.9518H257.808V53.1582H257.478C256.874 54.3298 256.023 55.4281 254.925 56.4532C253.845 57.4599 252.481 58.2745 250.834 58.8969C249.204 59.501 247.292 59.803 245.095 59.803ZM247.676 52.4992C249.671 52.4992 251.401 52.1057 252.865 51.3186C254.33 50.5131 255.456 49.4514 256.243 48.1335C257.048 46.8155 257.451 45.3785 257.451 43.8226V38.8527C257.14 39.109 256.609 39.347 255.858 39.5666C255.126 39.7863 254.302 39.9785 253.387 40.1432C252.472 40.308 251.566 40.4544 250.669 40.5826C249.772 40.7107 248.994 40.8205 248.335 40.9121C246.852 41.1134 245.525 41.4429 244.354 41.9005C243.182 42.3582 242.258 42.9989 241.58 43.8226C240.903 44.628 240.564 45.6714 240.564 46.9528C240.564 48.7833 241.233 50.1653 242.569 51.0989C243.905 52.0325 245.607 52.4992 247.676 52.4992ZM296.976 58.9518V2.71831H318.064C322.384 2.71831 326.008 3.46882 328.937 4.96985C331.884 6.47087 334.108 8.57597 335.609 11.2851C337.129 13.976 337.888 17.1153 337.888 20.7031C337.888 24.3093 337.12 27.4395 335.582 30.0937C334.063 32.7296 331.82 34.7707 328.855 36.2168C325.889 37.6446 322.247 38.3585 317.927 38.3585H302.907V29.9015H316.554C319.08 29.9015 321.148 29.5537 322.759 28.8581C324.37 28.1442 325.56 27.11 326.329 25.7554C327.116 24.3825 327.509 22.6984 327.509 20.7031C327.509 18.7079 327.116 17.0055 326.329 15.596C325.542 14.1682 324.343 13.0882 322.732 12.356C321.121 11.6055 319.043 11.2302 316.499 11.2302H307.163V58.9518H296.976ZM326.027 33.471L339.948 58.9518H328.58L314.906 33.471H326.027ZM358.962 59.803C356.29 59.803 353.883 59.3271 351.741 58.3752C349.617 57.405 347.933 55.9772 346.689 54.0918C345.462 52.2064 344.849 49.8816 344.849 47.1175C344.849 44.7378 345.288 42.77 346.167 41.2141C347.046 39.6582 348.245 38.4134 349.764 37.4798C351.283 36.5463 352.995 35.8415 354.899 35.3656C356.821 34.8714 358.807 34.5144 360.857 34.2947C363.328 34.0385 365.332 33.8097 366.87 33.6083C368.408 33.3886 369.524 33.0591 370.22 32.6198C370.934 32.1622 371.291 31.4574 371.291 30.5056V30.3408C371.291 28.2723 370.678 26.6706 369.451 25.5357C368.225 24.4008 366.458 23.8333 364.152 23.8333C361.717 23.8333 359.786 24.3642 358.358 25.4259C356.949 26.4876 355.997 27.7415 355.503 29.1876L346.222 27.8696C346.954 25.3069 348.162 23.1652 349.846 21.4445C351.53 19.7055 353.59 18.4058 356.024 17.5455C358.459 16.6669 361.15 16.2275 364.097 16.2275C366.129 16.2275 368.151 16.4655 370.165 16.9414C372.179 17.4174 374.018 18.2045 375.684 19.3028C377.35 20.3828 378.686 21.8564 379.693 23.7235C380.718 25.5906 381.231 27.9245 381.231 30.7252V58.9518H371.675V53.1582H371.346C370.742 54.3298 369.89 55.4281 368.792 56.4532C367.712 57.4599 366.348 58.2745 364.701 58.8969C363.072 59.501 361.159 59.803 358.962 59.803ZM361.543 52.4992C363.539 52.4992 365.268 52.1057 366.733 51.3186C368.197 50.5131 369.323 49.4514 370.11 48.1335C370.916 46.8155 371.318 45.3785 371.318 43.8226V38.8527C371.007 39.109 370.476 39.347 369.726 39.5666C368.994 39.7863 368.17 39.9785 367.255 40.1432C366.339 40.308 365.433 40.4544 364.536 40.5826C363.639 40.7107 362.861 40.8205 362.202 40.9121C360.72 41.1134 359.392 41.4429 358.221 41.9005C357.049 42.3582 356.125 42.9989 355.448 43.8226C354.77 44.628 354.432 45.6714 354.432 46.9528C354.432 48.7833 355.1 50.1653 356.436 51.0989C357.772 52.0325 359.475 52.4992 361.543 52.4992ZM409.622 59.7755C405.503 59.7755 401.934 58.8694 398.913 57.0572C395.893 55.245 393.55 52.7097 391.884 49.4514C390.237 46.1931 389.413 42.3856 389.413 38.029C389.413 33.6724 390.237 29.8557 391.884 26.5791C393.55 23.3025 395.893 20.7581 398.913 18.9459C401.934 17.1336 405.503 16.2275 409.622 16.2275C413.741 16.2275 417.31 17.1336 420.33 18.9459C423.351 20.7581 425.685 23.3025 427.332 26.5791C428.998 29.8557 429.831 33.6724 429.831 38.029C429.831 42.3856 428.998 46.1931 427.332 49.4514C425.685 52.7097 423.351 55.245 420.33 57.0572C417.31 58.8694 413.741 59.7755 409.622 59.7755ZM409.677 51.8128C411.91 51.8128 413.777 51.1996 415.278 49.9731C416.779 48.7284 417.896 47.0626 418.628 44.9758C419.379 42.889 419.754 40.5643 419.754 38.0015C419.754 35.4205 419.379 33.0866 418.628 30.9998C417.896 28.8947 416.779 27.2198 415.278 25.975C413.777 24.7303 411.91 24.1079 409.677 24.1079C407.389 24.1079 405.485 24.7303 403.966 25.975C402.465 27.2198 401.339 28.8947 400.588 30.9998C399.856 33.0866 399.49 35.4205 399.49 38.0015C399.49 40.5643 399.856 42.889 400.588 44.9758C401.339 47.0626 402.465 48.7284 403.966 49.9731C405.485 51.1996 407.389 51.8128 409.677 51.8128Z" fill="#47567F"/>
</svg>
